<?xml version="1.0" encoding="UTF-8" standalone="no"?>
<!-- Created with Inkscape (http://www.inkscape.org/) -->

<svg
   xmlns:dc="http://purl.org/dc/elements/1.1/"
   xmlns:cc="http://creativecommons.org/ns#"
   xmlns:rdf="http://www.w3.org/1999/02/22-rdf-syntax-ns#"
   xmlns:svg="http://www.w3.org/2000/svg"
   xmlns="http://www.w3.org/2000/svg"
   xmlns:sodipodi="http://sodipodi.sourceforge.net/DTD/sodipodi-0.dtd"
   xmlns:inkscape="http://www.inkscape.org/namespaces/inkscape"
   id="svg3004"
   version="1.1"
   inkscape:version="0.48.2 r9819"
   width="167.62727"
   height="231.50125"
   xml:space="preserve"
   sodipodi:docname="esug-Logo-Version3-13092006.pdf"><metadata
     id="metadata3010"><rdf:RDF><cc:Work
         rdf:about=""><dc:format>image/svg+xml</dc:format><dc:type
           rdf:resource="http://purl.org/dc/dcmitype/StillImage" /><dc:title></dc:title></cc:Work></rdf:RDF></metadata><defs
     id="defs3008" /><sodipodi:namedview
     pagecolor="#ffffff"
     bordercolor="#666666"
     borderopacity="1"
     objecttolerance="10"
     gridtolerance="10"
     guidetolerance="10"
     inkscape:pageopacity="0"
     inkscape:pageshadow="2"
     inkscape:window-width="1409"
     inkscape:window-height="1121"
     id="namedview3006"
     showgrid="false"
     fit-margin-top="0"
     fit-margin-left="0"
     fit-margin-right="0"
     fit-margin-bottom="0"
     inkscape:zoom="0.85795724"
     inkscape:cx="281.34407"
     inkscape:cy="318.65825"
     inkscape:window-x="0"
     inkscape:window-y="0"
     inkscape:window-maximized="0"
     inkscape:current-layer="g3012" /><g
     id="g3012"
     inkscape:groupmode="layer"
     inkscape:label="esug-Logo-Version3-13092006"
     transform="matrix(1.25,0,0,-1.25,-91.155929,439.093)"><path
       d="m 147.4914,202.5499 c 5.5934,24.4327 9.2121,48.1584 12.3625,71.7012 2.0268,15.1461 2.6824,29.7689 2.2433,43.4033 -0.3424,10.6543 -1.6404,20.491 -5.7257,29.2532 8.1176,2.312 18.0111,-2.533 21.8778,-6.6024 13.1828,-13.4697 11.611,-44.6899 4.9499,-67.3974 -8.3835,-26.0053 -18.5301,-46.9667 -29.9401,-70.8826 -1.9111,0.284 -3.9011,0.4493 -5.7677,0.5247"
       style="fill:#005ea3;fill-opacity:1;fill-rule:evenodd;stroke:none"
       id="path3048"
       inkscape:connector-curvature="0" /><path
       d="m 155.4514,201.2769 c 17.0062,19.7855 33.7105,41.9042 44.2576,64.9788 4.5369,11.3097 7.2111,22.9958 7.3165,33.7884 0.0743,7.5887 -3.7794,16.8976 -8.1845,22.7775 -4.532,6.2856 -9.9314,11.9897 -16.7774,15.0843 6.9117,-10.1185 8.259,-21.1617 8.049,-34.3437 -0.1619,-10.1903 -2.1881,-20.3457 -5.4459,-32.6648 -8.2335,-24.2946 -18.7291,-46.2293 -30.8166,-68.976 0.4028,-0.0895 1.491,-0.2579 1.6013,-0.6445"
       style="fill:#38abde;fill-opacity:1;fill-rule:evenodd;stroke:none"
       id="path3050"
       inkscape:connector-curvature="0" /><path
       d="m 132.4593,202.5536 c -5.5933,24.4326 -9.2115,48.1547 -12.3619,71.6975 -2.0268,15.1461 -2.6821,29.7689 -2.2433,43.4033 0.3424,10.6543 1.6404,20.491 5.7257,29.2532 -8.1176,2.312 -18.0108,-2.533 -21.8775,-6.6024 -13.1831,-13.4697 -11.6113,-44.6899 -4.9502,-67.3974 8.3835,-26.0053 18.5273,-46.9678 29.937,-70.884 1.5664,0.2517 3.6748,0.407 5.7702,0.5298"
       style="fill:#db361c;fill-opacity:1;fill-rule:evenodd;stroke:none"
       id="path3052"
       inkscape:connector-curvature="0" /><path
       d="m 126.0975,201.9178 c -0.0385,-0.009 -1.5511,-0.2518 -1.5976,-0.6409 -17.0062,19.7855 -33.7105,41.9042 -44.2573,64.9788 -4.5372,11.3097 -7.2114,22.9958 -7.3168,33.7884 -0.0743,7.5887 3.7794,16.8976 8.1845,22.7775 4.532,6.2856 9.9314,11.9897 16.7774,15.0843 -6.9117,-10.1185 -8.259,-21.1617 -8.049,-34.3437 0.1622,-10.1903 2.1881,-20.3457 5.4459,-32.6648 8.1559,-24.0661 18.8603,-46.4496 30.8129,-68.9796"
       style="fill:#78367d;fill-opacity:1;fill-rule:evenodd;stroke:none"
       id="path3054"
       inkscape:connector-curvature="0" /><path
       d="m 139.987,202.1258 c -8.0728,0 -14.6568,-0.7115 -14.6568,-1.5845 0,-0.8728 6.584,-1.5843 14.6568,-1.5843 8.0728,0 14.6568,0.7115 14.6568,1.5843 0,0.873 -6.584,1.5845 -14.6568,1.5845"
       style="fill:#615e5c;fill-opacity:1;fill-rule:evenodd;stroke:none"
       id="path3056"
       inkscape:connector-curvature="0" /><path
       d="m 127.578,186.5551 5.7606,0 0,-1.9848 -2.1299,0 0,-16.5118 2.1299,0 0,-1.9851 -5.7606,0"
       style="fill:#005ea3;fill-opacity:1;fill-rule:evenodd;stroke:none"
       id="path3058"
       inkscape:connector-curvature="0" /><path
       d="m 152.3962,186.5551 -5.7608,0 0,-1.9848 2.1299,0 0,-16.5118 -2.1299,0 0,-1.9851 5.7608,0"
       style="fill:#005ea3;fill-opacity:1;fill-rule:evenodd;stroke:none"
       id="path3060"
       inkscape:connector-curvature="0" /><path
       d="m 146.6212,202.5967 c 5.6699,27.1505 9.7982,55.5437 12.9166,85.2542 1.1339,17.3426 2.1501,43.6436 -5.2205,59.2807 -3.5507,2.3856 -9.6639,3.8588 -14.3414,4.1428 -4.678,-0.284 -10.7912,-1.7572 -14.3419,-4.1428 -7.3706,-15.6371 -6.3541,-41.9381 -5.2205,-59.2807 3.1184,-29.7105 7.2399,-58.1009 12.9098,-85.2514 4.3914,0.1794 8.8027,0.2007 13.2979,-0.003"
       style="fill:#f7c400;fill-opacity:1;fill-rule:evenodd;stroke:none"
       id="path3066"
       inkscape:connector-curvature="0" /><path
       d="m 141.8017,186.5546 -3.6127,-3e-4 -0.0165,-20.4801 3.6292,0"
       style="fill:#005ea3;fill-opacity:1;fill-rule:evenodd;stroke:none"
       id="path3094"
       inkscape:connector-curvature="0" /></g></svg>